{"title":"The.Forger.2014.720p.WEBRip.XviD.MP3-RARBG","uid":11795479,"size":2391976819,"categoryP":"video","categoryS":"hd___movies","magnet":"?xt=urn:btih:ecc0641e1bbf48bafc48db74bee5e182de1cf9fa&amp;dn=The.Forger.2014.720p.WEBRip.XviD.MP3-RARBG&amp;tr=udp%3A%2F%2Ftracker.openbittorrent.com%3A80&amp;tr=udp%3A%2F%2Fopen.demonii.com%3A1337&amp;tr=udp%3A%2F%2Ftracker.coppersurfer.tk%3A6969&amp;tr=udp%3A%2F%2Fexodus.desync.com%3A6969","seeders":8,"leechers":2,"uploader":"vickey1992","files":4,"time":1428108024,"description":"Info:\n\n[mediainfo]\n\nFormat : AVI\nFormat/Info : Audio Video Interleave\nFormat profile : OpenDML\nFile size : 2.23 GiB\nDuration : 1h 35mn\nOverall bit rate : 3 349 Kbps\nMovie name : RARBG.COM - The.Forger.2014.720p.WEBRip.XviD.MP3-RARBG\nWriting library : VirtualDub build 35491/release\nComment : RARBG.COM - The.Forger.2014.720p.WEBRip.XviD.MP3-RARBG\n\nVideo\nID : 0\nFormat : MPEG-4 Visual\nFormat profile : Simple@L5\nFormat settings, BVOP : No\nFormat settings, QPel : No\nFormat settings, GMC : No warppoints\nFormat settings, Matrix : Default (H.263)\nCodec ID : XVID\nCodec ID/Hint : XviD\nDuration : 1h 35mn\nBit rate : 3 142 Kbps\nWidth : 1 280 pixels\nHeight : 720 pixels\nDisplay aspect ratio : 16:9\nFrame rate : 25.000 fps\nColor space : YUV\nChroma subsampling : 4:2:0\nBit depth : 8 bits\nScan type : Progressive\nCompression mode : Lossy\nBits/(Pixel*Frame) : 0.136\nStream size : 2.09 GiB (94%)\nWriting library : Lavc56.13.100\n\nAudio\nID : 1\nFormat : MPEG Audio\nFormat version : Version 1\nFormat profile : Layer 3\nMode : Joint stereo\nMode extension : MS Stereo\nCodec ID : 55\nCodec ID/Hint : MP3\nDuration : 1h 35mn\nBit rate mode : Constant\nBit rate : 192 Kbps\nChannel(s) : 2 channels\nSampling rate : 44.1 KHz\nCompression mode : Lossy\nStream size : 131 MiB (6%)\nAlignment : Aligned on interleaves\nInterleave, duration : 26 ms (0.65 video frame)\nInterleave, preload duration : 522 ms\nWriting library : LAME\n\n\n\n[/mediainfo]\n\nNotes:\nGreetz to all! :)","torrent":{"xt":"urn:btih:ecc0641e1bbf48bafc48db74bee5e182de1cf9fa","amp;dn":"The.Forger.2014.720p.WEBRip.XviD.MP3-RARBG","amp;tr":["udp%3A%2F%2Ftracker.openbittorrent.com%3A80","udp%3A%2F%2Fopen.demonii.com%3A1337","udp%3A%2F%2Ftracker.coppersurfer.tk%3A6969","udp%3A%2F%2Fexodus.desync.com%3A6969"],"infoHash":"ecc0641e1bbf48bafc48db74bee5e182de1cf9fa","infoHashBuffer":{"type":"Buffer","data":[236,192,100,30,27,191,72,186,252,72,219,116,190,229,225,130,222,28,249,250]},"announce":[],"urlList":[]}}